<?xml version="1.0" encoding="utf-8"?>
<!-- Generator: Adobe Illustrator 18.0.0, SVG Export Plug-In . SVG Version: 6.00 Build 0)  -->
<!DOCTYPE svg PUBLIC "-//W3C//DTD SVG 1.1//EN" "http://www.w3.org/Graphics/SVG/1.1/DTD/svg11.dtd">
<svg version="1.1" id="Layer_1" xmlns="http://www.w3.org/2000/svg" xmlns:xlink="http://www.w3.org/1999/xlink" x="0px" y="0px"
	 viewBox="0 0 85.7 106" enable-background="new 0 0 85.7 106" xml:space="preserve">
<!--<g>
	<g>
		<path fill="#FFFFFF" d="M10.2,10.6c-0.2,0.1-0.5,0.2-0.8,0.2c-0.3,0-0.5-0.1-0.7-0.3C8.5,10.3,8.4,10,8.4,9.7h0
			c-0.2,0.3-0.5,0.6-0.9,0.8c-0.4,0.2-0.8,0.3-1.3,0.3c-0.7,0-1.3-0.2-1.7-0.6S3.8,9.3,3.8,8.8c0-0.3,0.1-0.6,0.2-0.9
			s0.4-0.5,0.8-0.8c0.4-0.2,0.9-0.4,1.5-0.4l2.1-0.1V6.1c0-0.5-0.1-0.8-0.4-1C7.7,4.9,7.3,4.8,6.8,4.8c-0.6,0-1,0.1-1.3,0.4
			C5.4,5.4,5.2,5.7,5.2,6H4.1c0-0.5,0.2-1,0.6-1.4c0.5-0.5,1.2-0.7,2.1-0.7c1.2,0,2,0.4,2.4,1.3c0.1,0.3,0.2,0.6,0.2,1v3.2
			c0,0.3,0.1,0.4,0.4,0.4l0.3,0V10.6z M8.3,7.9V7.5L6.5,7.6c-0.4,0-0.8,0.1-1.1,0.3C5.1,8.1,5,8.4,5,8.8c0,0.3,0.1,0.6,0.3,0.8
			c0.2,0.2,0.6,0.3,1,0.3c0.6,0,1.1-0.2,1.4-0.5C8.1,9,8.3,8.5,8.3,7.9z"/>
		<path fill="#FFFFFF" d="M21.3,7.4c0,1.2-0.4,2.2-1.1,2.8c-0.5,0.4-1.1,0.7-1.9,0.7c-0.4,0-0.8-0.1-1.2-0.3
			c-0.4-0.2-0.7-0.4-0.8-0.7v3.6h-1.2V4.1h1l0.1,0.9c0.2-0.3,0.5-0.6,0.9-0.8s0.8-0.3,1.2-0.3c0.8,0,1.5,0.2,2,0.7
			C20.9,5.3,21.3,6.2,21.3,7.4z M19.6,9.2c0.3-0.5,0.5-1.1,0.5-1.8s-0.2-1.3-0.5-1.8s-0.8-0.7-1.5-0.7c-0.4,0-0.8,0.1-1.1,0.4
			c-0.5,0.4-0.8,1.1-0.8,2.1S16.5,9,17,9.5c0.3,0.3,0.7,0.4,1.1,0.4C18.8,9.9,19.3,9.6,19.6,9.2z"/>
		<path fill="#FFFFFF" d="M27,5.1c-0.2,0-0.4-0.1-0.6-0.1c-0.5,0-0.9,0.2-1.3,0.5c-0.4,0.4-0.6,1.1-0.6,2.1v2.9h-1.1V4.1h1l0.1,1.2
			c0.2-0.4,0.4-0.7,0.8-0.9S26,4,26.5,4c0.2,0,0.4,0,0.5,0V5.1z"/>
		<path fill="#FFFFFF" d="M34.1,7.4c0,1.2-0.3,2.1-1,2.7c-0.6,0.5-1.3,0.8-2.1,0.8c-0.8,0-1.5-0.3-2.1-0.8c-0.7-0.6-1-1.5-1-2.7
			s0.3-2.1,1-2.7c0.6-0.5,1.3-0.8,2.1-0.8c0.8,0,1.5,0.3,2.1,0.8C33.8,5.3,34.1,6.2,34.1,7.4z M33,7.4c0-0.9-0.2-1.6-0.6-2
			C32,5,31.6,4.8,31.1,4.8S30.1,5,29.8,5.3c-0.4,0.4-0.6,1.1-0.6,2c0,0.9,0.2,1.6,0.6,2c0.3,0.3,0.7,0.5,1.2,0.5s0.9-0.2,1.2-0.5
			C32.7,9,33,8.3,33,7.4z"/>
		<path fill="#FFFFFF" d="M37.5,11.6c0,0.6-0.2,1-0.5,1.4c-0.3,0.3-0.8,0.5-1.4,0.5c-0.3,0-0.6,0-0.9-0.1v-0.9
			c0.2,0,0.5,0.1,0.9,0.1c0.2,0,0.4-0.1,0.6-0.2c0.1-0.2,0.2-0.4,0.2-0.6V4.1h1.2V11.6z M37.6,2.6h-1.4V1.3h1.4V2.6z"/>
		<path fill="#FFFFFF" d="M45.6,7.1l0,0.7h-4.9c0,0.7,0.2,1.2,0.7,1.7c0.3,0.3,0.8,0.5,1.3,0.5c0.6,0,1-0.1,1.3-0.4
			c0.2-0.2,0.3-0.4,0.4-0.7h1.1c-0.1,0.7-0.5,1.2-1.1,1.6c-0.5,0.3-1.1,0.5-1.8,0.5c-0.9,0-1.7-0.3-2.3-1c-0.6-0.6-0.9-1.4-0.9-2.4
			c0-0.8,0.2-1.5,0.5-2.1c0.3-0.4,0.6-0.7,1.1-1c0.5-0.3,1-0.4,1.6-0.4c0.9,0,1.6,0.3,2.1,0.8C45.3,5.4,45.6,6.1,45.6,7.1z
			 M44.4,6.8c0-0.5-0.1-1-0.4-1.3c-0.3-0.4-0.8-0.6-1.4-0.6S41.6,5,41.2,5.4s-0.5,0.8-0.5,1.4H44.4z"/>
		<path fill="#FFFFFF" d="M52.9,8.4c-0.1,0.7-0.3,1.2-0.8,1.7c-0.5,0.5-1.2,0.7-2,0.7c-1.1,0-1.9-0.4-2.5-1.2C47.2,9,47,8.3,47,7.4
			c0-0.9,0.2-1.7,0.6-2.2c0.6-0.8,1.4-1.2,2.5-1.2c0.8,0,1.5,0.2,2,0.7c0.5,0.5,0.8,1,0.8,1.7h-1.2c-0.1-0.4-0.2-0.8-0.5-1
			c-0.3-0.3-0.7-0.4-1.1-0.4c-0.5,0-0.9,0.1-1.2,0.4c-0.5,0.4-0.7,1.1-0.7,2.1s0.2,1.7,0.7,2.1c0.3,0.3,0.7,0.4,1.2,0.4
			c0.5,0,0.9-0.1,1.2-0.4c0.3-0.3,0.4-0.6,0.5-1H52.9z"/>
		<path fill="#FFFFFF" d="M58.4,10.6c-0.5,0.1-1,0.2-1.4,0.2c-0.7,0-1.2-0.2-1.5-0.5c-0.3-0.3-0.4-0.8-0.4-1.3V5h-1.3V4.1h1.3V2.4
			l1.2-0.3v1.9h2V5h-2v3.8c0,0.3,0.1,0.5,0.2,0.7c0.1,0.1,0.4,0.2,0.7,0.2c0.1,0,0.3,0,0.5,0c0.2,0,0.4,0,0.5-0.1l0.2,0V10.6z"/>
		<path fill="#FFFFFF" d="M69.3,7.4c0,1.2-0.3,2.1-1,2.7c-0.5,0.5-1.1,0.7-2,0.7c-0.4,0-0.8-0.1-1.2-0.3s-0.7-0.4-0.9-0.8l-0.1,0.9
			h-1V1.3h1.2v3.6c0.2-0.3,0.5-0.5,0.8-0.7s0.8-0.3,1.2-0.3c0.8,0,1.4,0.2,1.9,0.7C69,5.2,69.3,6.1,69.3,7.4z M67.7,9.2
			c0.3-0.5,0.5-1.1,0.5-1.8c0-0.7-0.2-1.3-0.5-1.8s-0.8-0.7-1.5-0.7c-0.4,0-0.8,0.1-1.1,0.4c-0.5,0.4-0.8,1.1-0.8,2.1
			s0.3,1.7,0.8,2.1c0.3,0.3,0.7,0.4,1.1,0.4C66.9,9.9,67.4,9.6,67.7,9.2z"/>
		<path fill="#FFFFFF" d="M76.7,4.1L73.6,12c-0.2,0.5-0.4,0.8-0.7,1c-0.3,0.2-0.7,0.4-1.2,0.4c-0.4,0-0.7,0-1.1-0.1v-1
			c0.2,0.1,0.5,0.1,0.8,0.1c0.5,0,0.9-0.2,1-0.7l0.4-1.1l-2.8-6.6h1.3l2,5.2l1.9-5.2H76.7z"/>
	</g>
</g>-->
<g>
	<g>
		<g>
			<path fill="#FFFFFF" d="M27.8,78.6c0.2,0,0.3-0.1,0.4-0.3c0-0.1,0.1-0.2,0.1-0.3c0-0.3-0.1-0.5-0.3-0.7c-0.2-0.1-0.5-0.2-0.9-0.2
				c-0.5,0-0.8,0.1-1,0.4c-0.1,0.1-0.2,0.4-0.2,0.6h-0.8c0-0.7,0.2-1.1,0.6-1.4c0.4-0.3,0.9-0.4,1.4-0.4c0.6,0,1.1,0.1,1.5,0.4
				c0.4,0.2,0.6,0.6,0.6,1.1v3.1c0,0.1,0,0.2,0.1,0.2c0,0.1,0.1,0.1,0.2,0.1c0,0,0.1,0,0.1,0c0.1,0,0.1,0,0.2,0v0.7
				c-0.1,0-0.2,0.1-0.3,0.1c-0.1,0-0.2,0-0.3,0c-0.3,0-0.5-0.1-0.7-0.3c-0.1-0.1-0.1-0.3-0.2-0.5c-0.2,0.2-0.4,0.4-0.8,0.6
				c-0.3,0.2-0.7,0.3-1.1,0.3c-0.5,0-0.9-0.2-1.2-0.5c-0.3-0.3-0.5-0.7-0.5-1.1c0-0.5,0.2-0.9,0.5-1.2c0.3-0.3,0.7-0.4,1.2-0.5
				L27.8,78.6z M25.9,81c0.2,0.1,0.4,0.2,0.7,0.2c0.3,0,0.6-0.1,0.9-0.2c0.5-0.2,0.8-0.6,0.8-1.2v-0.7c-0.1,0.1-0.3,0.1-0.4,0.2
				c-0.2,0-0.3,0.1-0.5,0.1l-0.5,0.1c-0.3,0-0.6,0.1-0.7,0.2c-0.3,0.2-0.4,0.4-0.4,0.7C25.6,80.7,25.7,80.9,25.9,81"/>
			<path fill="#FFFFFF" d="M34.8,76.7c0.4,0.3,0.6,0.8,0.7,1.5h-0.9c-0.1-0.3-0.2-0.6-0.4-0.8c-0.2-0.2-0.5-0.3-0.9-0.3
				c-0.6,0-1,0.3-1.2,0.8c-0.2,0.4-0.2,0.8-0.2,1.3c0,0.5,0.1,1,0.3,1.4c0.2,0.4,0.6,0.6,1.1,0.6c0.4,0,0.7-0.1,0.9-0.3
				c0.2-0.2,0.4-0.5,0.5-0.9h0.9c-0.1,0.7-0.3,1.2-0.8,1.6c-0.4,0.3-0.9,0.5-1.5,0.5c-0.7,0-1.3-0.3-1.7-0.8
				c-0.4-0.5-0.6-1.2-0.6-1.9c0-0.9,0.2-1.7,0.7-2.2c0.5-0.5,1-0.8,1.7-0.8C33.9,76.3,34.4,76.5,34.8,76.7"/>
			<path fill="#FFFFFF" d="M40.5,76.7c0.4,0.3,0.6,0.8,0.7,1.5h-0.9c-0.1-0.3-0.2-0.6-0.4-0.8c-0.2-0.2-0.5-0.3-0.9-0.3
				c-0.6,0-1,0.3-1.2,0.8c-0.2,0.4-0.2,0.8-0.2,1.3c0,0.5,0.1,1,0.3,1.4c0.2,0.4,0.6,0.6,1.1,0.6c0.4,0,0.7-0.1,0.9-0.3
				c0.2-0.2,0.4-0.5,0.5-0.9h0.9c-0.1,0.7-0.4,1.2-0.8,1.6C40,81.8,39.5,82,38.9,82c-0.7,0-1.3-0.3-1.7-0.8
				c-0.4-0.5-0.6-1.2-0.6-1.9c0-0.9,0.2-1.7,0.7-2.2c0.5-0.5,1-0.8,1.7-0.8C39.6,76.3,40.1,76.5,40.5,76.7"/>
			<path fill="#FFFFFF" d="M43.6,76.5V80c0,0.3,0,0.5,0.1,0.7c0.2,0.3,0.4,0.5,0.9,0.5c0.6,0,1-0.3,1.2-0.8C46,80,46,79.6,46,79.1
				v-2.6h0.9v5.4h-0.9l0-0.8c-0.1,0.2-0.3,0.4-0.4,0.5c-0.3,0.3-0.7,0.4-1.2,0.4c-0.8,0-1.3-0.3-1.5-0.8c-0.1-0.3-0.2-0.6-0.2-1.1
				v-3.6H43.6z"/>
			<path fill="#FFFFFF" d="M49.1,76.5h0.9v0.9c0.1-0.2,0.2-0.4,0.5-0.7c0.3-0.3,0.6-0.4,0.9-0.4c0,0,0,0,0.1,0c0,0,0.1,0,0.2,0v1
				c-0.1,0-0.1,0-0.2,0c0,0-0.1,0-0.1,0c-0.5,0-0.8,0.1-1,0.4c-0.2,0.3-0.4,0.6-0.4,1v3.1h-0.9V76.5z"/>
			<path fill="#FFFFFF" d="M55.9,78.6c0.2,0,0.3-0.1,0.4-0.3c0-0.1,0.1-0.2,0.1-0.3c0-0.3-0.1-0.5-0.3-0.7c-0.2-0.1-0.5-0.2-0.9-0.2
				c-0.5,0-0.8,0.1-1,0.4c-0.1,0.1-0.2,0.4-0.2,0.6h-0.8c0-0.7,0.2-1.1,0.6-1.4c0.4-0.3,0.9-0.4,1.4-0.4c0.6,0,1.1,0.1,1.5,0.4
				c0.4,0.2,0.6,0.6,0.6,1.1v3.1c0,0.1,0,0.2,0.1,0.2c0,0.1,0.1,0.1,0.2,0.1c0,0,0.1,0,0.1,0c0,0,0.1,0,0.2,0v0.7
				c-0.1,0-0.2,0.1-0.3,0.1c-0.1,0-0.2,0-0.3,0c-0.3,0-0.5-0.1-0.7-0.3c-0.1-0.1-0.1-0.3-0.2-0.5c-0.2,0.2-0.4,0.4-0.8,0.6
				c-0.3,0.2-0.7,0.3-1.1,0.3c-0.5,0-0.9-0.2-1.2-0.5c-0.3-0.3-0.5-0.7-0.5-1.1c0-0.5,0.2-0.9,0.5-1.2c0.3-0.3,0.7-0.4,1.2-0.5
				L55.9,78.6z M54,81c0.2,0.1,0.4,0.2,0.7,0.2c0.3,0,0.6-0.1,0.9-0.2c0.5-0.2,0.8-0.6,0.8-1.2v-0.7c-0.1,0.1-0.3,0.1-0.4,0.2
				c-0.2,0-0.3,0.1-0.5,0.1l-0.5,0.1c-0.3,0-0.6,0.1-0.7,0.2c-0.3,0.2-0.4,0.4-0.4,0.7C53.8,80.7,53.8,80.9,54,81"/>
			<path fill="#FFFFFF" d="M59.6,75h0.9v1.5h0.9v0.7h-0.9v3.5c0,0.2,0.1,0.3,0.2,0.4c0.1,0,0.2,0.1,0.4,0.1c0,0,0.1,0,0.1,0
				c0.1,0,0.1,0,0.2,0v0.7c-0.1,0-0.2,0.1-0.3,0.1c-0.1,0-0.2,0-0.4,0c-0.4,0-0.7-0.1-0.9-0.3c-0.2-0.2-0.2-0.5-0.2-0.8v-3.5h-0.7
				v-0.7h0.7V75z"/>
			<path fill="#FFFFFF" d="M81.6,101.8H4.3V24.5h77.3V101.8z M5.8,100.3H80V26H5.8V100.3z"/>
			<rect x="31.9" y="46.6" fill="#FFFFFF" width="1.2" height="10.2"/>
			<rect x="36.6" y="46.6" fill="#FFFFFF" width="1.2" height="10.2"/>
			<rect x="41.2" y="46.6" fill="#FFFFFF" width="1.2" height="10.2"/>
			<rect x="45.9" y="46.6" fill="#FFFFFF" width="1.2" height="10.2"/>
			<rect x="60.7" y="46.6" fill="#FFFFFF" width="1.2" height="10.2"/>
			<polygon fill="#FFFFFF" points="26.6,46.7 27.6,46.7 24.4,56.8 24.5,56.8 27.8,46.6 26.5,46.6 23.2,56.8 23.4,56.8 			"/>
			<polygon fill="#FFFFFF" points="26.6,46.7 23.4,56.8 24.4,56.8 27.6,46.7 			"/>
			<polygon fill="#FFFFFF" points="55.4,46.7 56.4,46.7 53.2,56.8 53.3,56.8 56.6,46.6 55.3,46.6 52,56.8 52.2,56.8 			"/>
			<polygon fill="#FFFFFF" points="55.4,46.7 52.2,56.8 53.2,56.8 56.4,46.7 			"/>
		</g>
	</g>
</g>
</svg>
