<?xml version="1.0" encoding="utf-8"?>
<!-- Generator: Adobe Illustrator 18.0.0, SVG Export Plug-In . SVG Version: 6.00 Build 0)  -->
<!DOCTYPE svg PUBLIC "-//W3C//DTD SVG 1.1//EN" "http://www.w3.org/Graphics/SVG/1.1/DTD/svg11.dtd">
<svg version="1.1" id="Layer_1" xmlns="http://www.w3.org/2000/svg" xmlns:xlink="http://www.w3.org/1999/xlink" x="0px" y="0px"
	 viewBox="0 0 189.3 32.6" enable-background="new 0 0 189.3 32.6" xml:space="preserve">
<g>
	<g>
		<path fill="#FFFFFF" d="M56.9,11.4H51v3.5h5.2v1.3H51v4.7h-1.4V10.2h7.2V11.4z"/>
		<path fill="#FFFFFF" d="M67,20.8h-1.5l-2.1-4.4h-3.1v4.4h-1.4V10.2h4.4c1.3,0,2.2,0.3,2.8,0.9c0.6,0.6,0.9,1.3,0.9,2.2
			c0,0.8-0.3,1.5-0.9,2.1c-0.3,0.3-0.8,0.6-1.3,0.8L67,20.8z M65.6,13.3c0-1.2-0.8-1.9-2.3-1.9h-3v3.7h3
			C64.8,15.2,65.6,14.5,65.6,13.3z"/>
		<path fill="#FFFFFF" d="M70.8,20.8h-1.4V10.2h1.4V20.8z"/>
		<path fill="#FFFFFF" d="M81.4,20.8h-7.5V10.2h7.5v1.2h-6.1v3.2h5.3v1.3h-5.3v3.7h6.1V20.8z"/>
		<path fill="#FFFFFF" d="M92.2,20.8h-1.6l-5.5-8.5v8.5h-1.4V10.2h1.6l5.5,8.6v-8.6h1.4V20.8z"/>
		<path fill="#FFFFFF" d="M103.6,15.5c0,2-0.5,3.4-1.4,4.3c-0.8,0.7-1.8,1.1-2.9,1.1h-3.9V10.2h3.9c1.2,0,2.1,0.4,2.9,1.1
			C103.1,12.1,103.6,13.5,103.6,15.5z M102.2,15.5c0-0.7-0.1-1.4-0.2-1.9c-0.1-0.6-0.4-1-0.8-1.4c-0.5-0.5-1.2-0.7-2-0.7h-2.5v8.2
			h2.5c0.8,0,1.5-0.2,2-0.7C101.9,18.2,102.2,17.1,102.2,15.5z"/>
		<path fill="#FFFFFF" d="M113.7,17.9c0,0.8-0.3,1.5-0.9,2.1c-0.8,0.7-1.8,1.1-3.2,1.1c-1.4,0-2.4-0.3-3.2-1
			c-0.8-0.7-1.2-1.6-1.2-2.5h1.5c0,0.6,0.3,1.2,0.8,1.7c0.5,0.4,1.2,0.7,2.1,0.7c0.9,0,1.6-0.2,2.1-0.6c0.4-0.3,0.6-0.7,0.6-1.2
			c0-0.4-0.2-0.8-0.5-1.1c-0.3-0.3-0.8-0.5-1.4-0.6l-1.8-0.3c-0.9-0.1-1.6-0.4-2.2-0.9c-0.5-0.5-0.8-1.1-0.8-1.9s0.3-1.5,1-2.1
			c0.8-0.7,1.8-1.1,2.9-1.1c1.2,0,2.2,0.3,2.9,1c0.7,0.6,1,1.4,1.1,2.3H112c0-0.5-0.2-1-0.6-1.3c-0.5-0.5-1.1-0.7-2-0.7
			c-0.9,0-1.5,0.2-2,0.7c-0.3,0.3-0.5,0.7-0.5,1.2c0,0.4,0.2,0.8,0.5,1s0.7,0.4,1.2,0.5c0.1,0,0.7,0.1,1.9,0.3
			c0.9,0.1,1.7,0.5,2.3,1C113.4,16.4,113.7,17.1,113.7,17.9z"/>
		<path fill="#FFFFFF" d="M121.1,20.8h-1.4V10.2h1.4V20.8z"/>
		<path fill="#FFFFFF" d="M132.7,20.8h-1.6l-5.5-8.5v8.5h-1.4V10.2h1.6l5.5,8.6v-8.6h1.4V20.8z"/>
		<path fill="#FFFFFF" d="M147.1,17.9c0,0.8-0.3,1.5-0.9,2.1c-0.8,0.7-1.8,1.1-3.2,1.1c-1.4,0-2.4-0.3-3.2-1
			c-0.8-0.7-1.2-1.6-1.2-2.5h1.5c0,0.6,0.3,1.2,0.8,1.7c0.5,0.4,1.2,0.7,2.1,0.7c0.9,0,1.6-0.2,2.1-0.6c0.4-0.3,0.6-0.7,0.6-1.2
			c0-0.4-0.2-0.8-0.5-1.1c-0.3-0.3-0.8-0.5-1.4-0.6L142,16c-0.9-0.1-1.6-0.4-2.2-0.9c-0.5-0.5-0.8-1.1-0.8-1.9s0.3-1.5,1-2.1
			c0.8-0.7,1.8-1.1,2.9-1.1c1.2,0,2.2,0.3,2.9,1c0.7,0.6,1,1.4,1.1,2.3h-1.5c0-0.5-0.2-1-0.6-1.3c-0.5-0.5-1.1-0.7-2-0.7
			c-0.9,0-1.5,0.2-2,0.7c-0.3,0.3-0.5,0.7-0.5,1.2c0,0.4,0.2,0.8,0.5,1s0.7,0.4,1.2,0.5c0.1,0,0.7,0.1,1.9,0.3
			c0.9,0.1,1.7,0.5,2.3,1C146.8,16.4,147.1,17.1,147.1,17.9z"/>
		<path fill="#FFFFFF" d="M157.3,13.4c0,1-0.3,1.8-0.9,2.4c-0.6,0.6-1.5,0.9-2.7,0.9h-2.8v4.1h-1.4V10.2h4.1c1.3,0,2.2,0.3,2.8,1
			C157,11.7,157.3,12.5,157.3,13.4z M155.8,13.4c0-0.7-0.2-1.2-0.6-1.5s-1-0.5-1.7-0.5h-2.7v4.1h2.7
			C155.1,15.5,155.8,14.8,155.8,13.4z"/>
		<path fill="#FFFFFF" d="M167.4,20.8H166l-0.9-2.5h-4.9l-0.9,2.5h-1.4l3.9-10.6h1.6L167.4,20.8z M164.6,17.1l-2-5.5l-2,5.5H164.6z"
			/>
		<path fill="#FFFFFF" d="M176.9,17.4c0,1-0.4,1.8-1.1,2.5c-0.4,0.3-0.8,0.6-1.3,0.8c-0.5,0.2-1.1,0.3-1.7,0.3c-1.2,0-2.2-0.4-3-1.1
			c-0.6-0.5-0.9-1.1-1.1-1.8c-0.2-0.7-0.3-1.6-0.3-2.5c0-1,0.1-1.8,0.3-2.5c0.2-0.7,0.6-1.3,1.1-1.8c0.8-0.8,1.8-1.1,3-1.1
			c1.2,0,2.2,0.4,3,1.1c0.7,0.7,1.1,1.5,1.1,2.4h-1.5c0-0.6-0.2-1.1-0.6-1.5c-0.5-0.5-1.2-0.8-2-0.8c-0.8,0-1.5,0.3-2,0.8
			c-0.3,0.3-0.5,0.6-0.6,1.1c-0.1,0.4-0.2,0.8-0.3,1.1c0,0.3,0,0.7,0,1.2c0,0.5,0,0.9,0,1.2c0,0.3,0.1,0.7,0.3,1.1
			c0.1,0.4,0.4,0.8,0.6,1.1c0.5,0.5,1.2,0.8,2,0.8c0.8,0,1.5-0.3,2-0.8c0.4-0.4,0.6-0.9,0.6-1.5H176.9z"/>
		<path fill="#FFFFFF" d="M186.6,20.8h-7.5V10.2h7.5v1.2h-6.1v3.2h5.3v1.3h-5.3v3.7h6.1V20.8z"/>
	</g>
	<g>
		<circle fill="#666666" cx="22.3" cy="16.3" r="10.8"/>
		<g>
			<path fill="#FFFFFF" d="M14.9,28.7c-1.3,0-2.5-0.4-3.3-1.1c-1.2-1.1-1.5-2.8-1-4.7l1.4,0.4c-0.4,1.3-0.2,2.5,0.6,3.2
				c1.2,1,3.4,1,6.1-0.1c2.9-1.2,5.9-3.5,8.5-6.3c5.4-6,7-13.4,4.7-15.5c-1.3-1.1-4-0.6-7.1,1.5l-0.8-1.2c3.8-2.6,7.1-3.1,8.9-1.4
				c3.3,2.9,1.1,11.3-4.5,17.6c-2.7,3-5.9,5.4-9,6.7C17.6,28.4,16.2,28.7,14.9,28.7z"/>
		</g>
	</g>
	<circle fill="#8387D3" cx="6.7" cy="16.2" r="3.5"/>
</g>
</svg>
