<?xml version="1.0" encoding="utf-8"?>
<!-- Generator: Adobe Illustrator 18.0.0, SVG Export Plug-In . SVG Version: 6.00 Build 0)  -->
<!DOCTYPE svg PUBLIC "-//W3C//DTD SVG 1.1//EN" "http://www.w3.org/Graphics/SVG/1.1/DTD/svg11.dtd">
<svg version="1.1" id="Layer_1" xmlns="http://www.w3.org/2000/svg" xmlns:xlink="http://www.w3.org/1999/xlink" x="0px" y="0px"
	 viewBox="0 0 174.1 57" enable-background="new 0 0 174.1 57" xml:space="preserve">
<g>
	<polygon fill="#FFFFFF" points="141.1,39.1 137.9,39.1 135.7,55.1 143.1,55.1 143.4,52.5 139.3,52.5 	"/>
	<polygon fill="#FFFFFF" points="145.1,55.1 148.3,55.1 150.5,39.1 147.3,39.1 	"/>
	<path fill="#FFFFFF" d="M159.5,39.1l-2.5,8.1c-0.4,1.4-0.9,3.3-1.2,4.5h0c0-1.2,0-3.1,0-4.5l-0.3-8.1h-3.5l1.6,16h3.4l6.1-16H159.5
		z"/>
	<polygon fill="#FFFFFF" points="162.4,55.1 169.8,55.1 170.2,52.5 165.9,52.5 166.5,48.1 170.3,48.1 170.6,45.5 166.8,45.5 
		167.4,41.7 171.3,41.7 171.7,39.1 164.6,39.1 	"/>
	<path fill="#FFFFFF" d="M29.3,3.8h-7.1v17.8c0,5.5-2,8.1-5.8,8.1c-3.6,0-5.7-2.7-5.7-8.1V3.8H3.8v17.3c0,9.9,4.6,14.2,12.5,14.2
		c8.2,0,13-4.6,13-14.1V3.8z"/>
	<path fill="#FFFFFF" d="M161.1,21.8c1.2-3.6,2.5-8.1,3.5-12h0.1c0,4.5,0.1,9,0.3,12.7l0.5,11.9h6.9l-1.7-31h-9.2l-3.3,10.3
		c-1,3.5-2.1,7.5-3,11.1H155c-0.7-3.6-1.7-7.5-2.6-11.1l-3.1-10.4h-9.4l-1.6,25.2l-7.9-25.2h-9.3l-7.8,25.3h-11.5v-7.4h11.5v-5.7
		h-11.5V9.2H114V3.4H94.7v5.4c-0.5-1.3-1.3-2.4-2.3-3.2c-2.2-1.7-5.5-2.4-10.1-2.4c-2.1,0-4.1,0.1-5.8,0.2H51.9h-1.2
		c-1.6,0-4.4,0-6.7,0c-8.7,0-11.8,3.5-11.8,8.8c0,4.5,3.4,7.4,8.6,9.2c3.8,1.3,5.2,2.4,5.2,4.4c0,2-1.7,3.4-5,3.4
		c-2.2,0-7.3,0-9.9,0c-0.9,2.4-2.3,4.3-4,5.8c4.4,0,11.2,0,13.6,0c8.6,0,12.6-4.4,12.6-9.6c0-4.4-2.6-7.2-8.1-9.2
		c-4-1.5-5.8-2.4-5.8-4.4c0-2.2,3.5-2.4,6.5-2.4c1.8,0,3.7,0,4.9,0v0h8.4v25.1h7.1V9.3h6.6v25.1h7V22.3h2.1c2.9,0,4.2,1.1,5.1,5
		c0.9,3.8,1.7,6.3,2.2,7.2h5.5h1.8h15.1h3.1h4.2l2.2-8h9l2.4,8h5.4h2.2h4.4l0.6-11.8c0.2-3.9,0.4-8.6,0.6-12.8h0.1
		c0.7,4,1.8,8.5,2.8,12.1l3.3,12h5.5L161.1,21.8z M82.6,17.2h-2.8V8.6c0.5-0.1,1.5-0.2,3.2-0.2c3.2,0,5.2,1.5,5.2,4.3
		C88.2,15.4,86.1,17.2,82.6,17.2z M93.9,25.7c-0.8-2.9-2-4.9-4.2-5.8v-0.1c2-0.7,4-2.4,5-4.7v13.6C94.4,27.6,94.1,26.6,93.9,25.7z
		 M122.1,21.2l1.9-6.6c0.5-1.8,1-4.1,1.4-6h0.1c0.5,1.8,1,4.1,1.6,6l1.9,6.6H122.1z"/>
</g>
</svg>
